<?xml version="1.0" encoding="UTF-8"?>
<svg width="1024px" height="512px" viewBox="0 0 1024 512" version="1.1" xmlns="http://www.w3.org/2000/svg" xmlns:xlink="http://www.w3.org/1999/xlink">
    <!-- Generator: Sketch 52.2 (67145) - http://www.bohemiancoding.com/sketch -->
    <title>Group</title>
    <desc>Created with Sketch.</desc>
    <g id="Page-1" stroke="none" stroke-width="1" fill="none" fill-rule="evenodd">
        <g id="Artboard" transform="translate(-66.000000, -121.000000)">
            <g id="Group" transform="translate(66.000000, 121.000000)">
                <rect id="Rectangle-3" fill-opacity="0.01" fill="#000000" x="0" y="0" width="1024" height="512"></rect>
                <path d="M25.384,54 L25.384,29.196 L35.284,29.196 C37.732,29.196 39.568,29.952 40.792,31.464 C42.052,32.976 42.664,34.812 42.664,36.972 C42.664,39.132 42.052,40.968 40.792,42.48 C39.568,43.956 37.732,44.712 35.284,44.712 L28.768,44.712 L28.768,54 L25.384,54 Z M35.248,32.328 L28.768,32.328 L28.768,41.58 L35.068,41.58 C37.912,41.58 39.316,39.528 39.316,36.972 C39.316,34.416 37.948,32.328 35.248,32.328 Z M46.56352,54 L46.56352,28.044 L49.83952,28.044 L49.83952,54 L46.56352,54 Z M71.88304,54 L68.64304,54 L68.64304,51.408 C67.52704,53.28 65.18704,54.36 62.73904,54.36 C60.36304,54.36 58.34704,53.532 56.69104,51.912 C55.03504,50.292 54.20704,48.168 54.20704,45.576 C54.20704,42.948 55.03504,40.86 56.69104,39.24 C58.34704,37.62 60.36304,36.828 62.73904,36.828 C65.18704,36.828 67.59904,37.872 68.64304,39.708 L68.64304,37.188 L71.88304,37.188 L71.88304,54 Z M68.60704,45.54 C68.60704,43.848 68.03104,42.48 66.91504,41.508 C65.79904,40.536 64.50304,40.032 63.02704,40.032 C61.47904,40.032 60.14704,40.536 59.10304,41.58 C58.05904,42.588 57.55504,43.92 57.55504,45.54 C57.55504,47.16 58.09504,48.528 59.13904,49.572 C60.18304,50.616 61.47904,51.156 63.02704,51.156 C64.57504,51.156 65.90704,50.652 66.98704,49.644 C68.06704,48.636 68.60704,47.268 68.60704,45.54 Z M95.87056,29.196 L95.87056,54 L92.66656,54 L81.36256,35.316 L81.36256,54 L78.01456,54 L78.01456,29.196 L81.32656,29.196 L92.52256,47.736 L92.52256,29.196 L95.87056,29.196 Z M103.80208,44.28 L114.24208,44.28 C113.84608,41.508 111.86608,39.78 109.13008,39.78 C106.28608,39.78 104.19808,41.508 103.80208,44.28 Z M117.48208,45.54 C117.48208,46.152 117.48208,46.584 117.44608,46.836 L103.80208,46.836 C104.19808,49.608 106.35808,51.408 109.23808,51.408 C111.29008,51.408 113.16208,50.436 114.06208,48.816 C114.38608,48.924 114.85408,49.14 115.50208,49.392 L116.87008,49.896 C115.46608,52.776 112.47808,54.36 109.13008,54.36 C106.68208,54.36 104.63008,53.532 102.97408,51.912 C101.35408,50.292 100.52608,48.168 100.52608,45.54 C100.52608,42.912 101.35408,40.824 102.97408,39.24 C104.63008,37.62 106.68208,36.828 109.13008,36.828 C111.54208,36.828 113.55808,37.62 115.10608,39.24 C116.69008,40.824 117.48208,42.912 117.48208,45.54 Z M126.2056,30.852 L126.2056,37.188 L129.7696,37.188 L129.7696,39.96 L126.2056,39.96 L126.2056,54 L122.9296,54 L122.9296,39.96 L119.9056,39.96 L119.9056,37.188 L122.9296,37.188 L122.9296,30.852 L126.2056,30.852 Z M133.92112,53.748 C133.02112,52.884 133.02112,51.372 133.92112,50.508 C134.89312,49.644 136.36912,49.644 137.26912,50.508 C138.16912,51.372 138.16912,52.884 137.26912,53.748 C136.36912,54.576 134.89312,54.576 133.92112,53.748 Z M133.92112,40.68 C133.02112,39.816 133.02112,38.304 133.92112,37.476 C134.89312,36.612 136.36912,36.612 137.26912,37.476 C138.16912,38.304 138.16912,39.816 137.26912,40.68 C136.36912,41.544 134.89312,41.544 133.92112,40.68 Z M153.20416,54 L153.20416,29.196 L156.55216,29.196 L156.55216,50.868 L166.66816,50.868 L166.66816,54 L153.20416,54 Z M172.18768,44.28 L182.62768,44.28 C182.23168,41.508 180.25168,39.78 177.51568,39.78 C174.67168,39.78 172.58368,41.508 172.18768,44.28 Z M185.86768,45.54 C185.86768,46.152 185.86768,46.584 185.83168,46.836 L172.18768,46.836 C172.58368,49.608 174.74368,51.408 177.62368,51.408 C179.67568,51.408 181.54768,50.436 182.44768,48.816 C182.77168,48.924 183.23968,49.14 183.88768,49.392 L185.25568,49.896 C183.85168,52.776 180.86368,54.36 177.51568,54.36 C175.06768,54.36 173.01568,53.532 171.35968,51.912 C169.73968,50.292 168.91168,48.168 168.91168,45.54 C168.91168,42.912 169.73968,40.824 171.35968,39.24 C173.01568,37.62 175.06768,36.828 177.51568,36.828 C179.92768,36.828 181.94368,37.62 183.49168,39.24 C185.07568,40.824 185.86768,42.912 185.86768,45.54 Z M206.6152,54 L203.3752,54 L203.3752,51.408 C202.2592,53.28 199.9192,54.36 197.4712,54.36 C195.0952,54.36 193.0792,53.532 191.4232,51.912 C189.7672,50.292 188.9392,48.168 188.9392,45.576 C188.9392,42.948 189.7672,40.86 191.4232,39.24 C193.0792,37.62 195.0952,36.828 197.4712,36.828 C199.9192,36.828 202.3312,37.872 203.3752,39.708 L203.3752,37.188 L206.6152,37.188 L206.6152,54 Z M203.3392,45.54 C203.3392,43.848 202.7632,42.48 201.6472,41.508 C200.5312,40.536 199.2352,40.032 197.7592,40.032 C196.2112,40.032 194.8792,40.536 193.8352,41.58 C192.7912,42.588 192.2872,43.92 192.2872,45.54 C192.2872,47.16 192.8272,48.528 193.8712,49.572 C194.9152,50.616 196.2112,51.156 197.7592,51.156 C199.3072,51.156 200.6392,50.652 201.7192,49.644 C202.7992,48.636 203.3392,47.268 203.3392,45.54 Z M215.37472,47.88 L215.37472,54 L212.09872,54 L212.09872,37.188 L215.37472,37.188 L215.37472,40.968 C216.20272,38.196 217.75072,36.828 220.05472,36.828 C221.38672,36.828 222.35872,37.044 222.97072,37.476 L222.46672,40.536 C221.67472,40.14 220.84672,39.96 219.98272,39.96 C216.92272,39.96 215.37472,43.128 215.37472,47.88 Z M229.60624,44.928 L229.60624,54 L226.33024,54 L226.33024,37.188 L229.60624,37.188 L229.60624,39.708 C230.57824,37.836 232.81024,36.828 234.86224,36.828 C239.03824,36.828 241.34224,39.528 241.34224,44.28 L241.34224,54 L238.06624,54 L238.06624,44.496 C238.06624,41.724 236.66224,40.032 234.35824,40.032 C231.73024,40.032 229.60624,41.616 229.60624,44.928 Z M249.84976,54 L246.60976,54 L246.60976,37.188 L249.84976,37.188 L249.84976,54 Z M246.60976,32.508 C245.74576,31.68 245.74576,30.312 246.60976,29.484 C247.50976,28.656 248.94976,28.656 249.81376,29.484 C250.71376,30.312 250.71376,31.68 249.81376,32.508 C248.94976,33.336 247.50976,33.336 246.60976,32.508 Z M258.60928,44.928 L258.60928,54 L255.33328,54 L255.33328,37.188 L258.60928,37.188 L258.60928,39.708 C259.58128,37.836 261.81328,36.828 263.86528,36.828 C268.04128,36.828 270.34528,39.528 270.34528,44.28 L270.34528,54 L267.06928,54 L267.06928,44.496 C267.06928,41.724 265.66528,40.032 263.36128,40.032 C260.73328,40.032 258.60928,41.616 258.60928,44.928 Z M288.932789,51.2640224 C287.960781,53.1720093 285.47679,54.36 283.0288,54.36 C280.6528,54.36 278.6368,53.568 276.9808,51.948 C275.3248,50.328 274.4968,48.24 274.4968,45.648 C274.4968,43.02 275.3248,40.896 276.9808,39.276 C278.6368,37.656 280.6528,36.828 283.0288,36.828 C285.4768,36.828 287.8888,37.944 288.9328,39.816 L288.9328,37.188 L292.1728,37.188 L292.1728,51.444 C292.1728,58.752 289.1128,62.388 282.9928,62.388 C279.8248,62.388 276.9808,60.732 275.3968,57.852 C275.5768,57.78 276.0448,57.528 276.8368,57.096 L278.1328,56.412 C279.1048,58.248 281.0848,59.292 282.9928,59.292 C286.9888,59.292 288.9688,56.736 288.9688,51.66 C288.9688,51.5533943 288.933724,51.3766357 288.932818,51.2682187 L288.932789,51.2640224 Z M288.8968,45.612 C288.8968,43.884 288.3568,42.516 287.2768,41.544 C286.1968,40.536 284.8648,40.032 283.3168,40.032 C281.7688,40.032 280.4728,40.572 279.4288,41.616 C278.3848,42.66 277.8448,43.992 277.8448,45.612 C277.8448,47.304 278.3488,48.636 279.3928,49.644 C280.4368,50.652 281.7688,51.156 283.3168,51.156 C284.7928,51.156 286.0888,50.652 287.2048,49.644 C288.3208,48.636 288.8968,47.304 288.8968,45.612 Z M307.63984,54 L307.63984,29.196 L310.98784,29.196 L310.98784,50.868 L321.10384,50.868 L321.10384,54 L307.63984,54 Z M341.02336,54 L337.78336,54 L337.78336,51.408 C336.66736,53.28 334.32736,54.36 331.87936,54.36 C329.50336,54.36 327.48736,53.532 325.83136,51.912 C324.17536,50.292 323.34736,48.168 323.34736,45.576 C323.34736,42.948 324.17536,40.86 325.83136,39.24 C327.48736,37.62 329.50336,36.828 331.87936,36.828 C334.32736,36.828 336.73936,37.872 337.78336,39.708 L337.78336,37.188 L341.02336,37.188 L341.02336,54 Z M337.74736,45.54 C337.74736,43.848 337.17136,42.48 336.05536,41.508 C334.93936,40.536 333.64336,40.032 332.16736,40.032 C330.61936,40.032 329.28736,40.536 328.24336,41.58 C327.19936,42.588 326.69536,43.92 326.69536,45.54 C326.69536,47.16 327.23536,48.528 328.27936,49.572 C329.32336,50.616 330.61936,51.156 332.16736,51.156 C333.71536,51.156 335.04736,50.652 336.12736,49.644 C337.20736,48.636 337.74736,47.268 337.74736,45.54 Z M351.04288,30.852 L351.04288,37.188 L354.60688,37.188 L354.60688,39.96 L351.04288,39.96 L351.04288,54 L347.76688,54 L347.76688,39.96 L344.74288,39.96 L344.74288,37.188 L347.76688,37.188 L347.76688,30.852 L351.04288,30.852 Z M360.2344,44.28 L370.6744,44.28 C370.2784,41.508 368.2984,39.78 365.5624,39.78 C362.7184,39.78 360.6304,41.508 360.2344,44.28 Z M373.9144,45.54 C373.9144,46.152 373.9144,46.584 373.8784,46.836 L360.2344,46.836 C360.6304,49.608 362.7904,51.408 365.6704,51.408 C367.7224,51.408 369.5944,50.436 370.4944,48.816 C370.8184,48.924 371.2864,49.14 371.9344,49.392 L373.3024,49.896 C371.8984,52.776 368.9104,54.36 365.5624,54.36 C363.1144,54.36 361.0624,53.532 359.4064,51.912 C357.7864,50.292 356.9584,48.168 356.9584,45.54 C356.9584,42.912 357.7864,40.824 359.4064,39.24 C361.0624,37.62 363.1144,36.828 365.5624,36.828 C367.9744,36.828 369.9904,37.62 371.5384,39.24 C373.1224,40.824 373.9144,42.912 373.9144,45.54 Z M381.37792,44.928 L381.37792,54 L378.10192,54 L378.10192,37.188 L381.37792,37.188 L381.37792,39.708 C382.34992,37.836 384.58192,36.828 386.63392,36.828 C390.80992,36.828 393.11392,39.528 393.11392,44.28 L393.11392,54 L389.83792,54 L389.83792,44.496 C389.83792,41.724 388.43392,40.032 386.12992,40.032 C383.50192,40.032 381.37792,41.616 381.37792,44.928 Z M402.91744,30.852 L402.91744,37.188 L406.48144,37.188 L406.48144,39.96 L402.91744,39.96 L402.91744,54 L399.64144,54 L399.64144,39.96 L396.61744,39.96 L396.61744,37.188 L399.64144,37.188 L399.64144,30.852 L402.91744,30.852 Z M429.14848,54 L419.53648,54 L419.53648,29.196 L429.14848,29.196 C432.56848,29.196 435.30448,30.384 437.28448,32.724 C439.30048,35.064 440.30848,38.016 440.30848,41.652 C440.30848,45.252 439.30048,48.204 437.32048,50.544 C435.34048,52.848 432.60448,54 429.14848,54 Z M422.88448,32.328 L422.88448,50.868 L429.14848,50.868 C431.63248,50.868 433.57648,50.004 434.90848,48.312 C436.27648,46.584 436.96048,44.352 436.96048,41.652 C436.96048,38.916 436.27648,36.684 434.90848,34.956 C433.57648,33.192 431.63248,32.328 429.14848,32.328 L422.88448,32.328 Z M459.94,37.188 L449.5,62.172 L446.08,62.172 L449.608,53.496 L442.876,37.188 L446.368,37.188 L451.408,49.356 L456.448,37.188 L459.94,37.188 Z M466.57552,44.928 L466.57552,54 L463.29952,54 L463.29952,37.188 L466.57552,37.188 L466.57552,39.708 C467.54752,37.836 469.77952,36.828 471.83152,36.828 C476.00752,36.828 478.31152,39.528 478.31152,44.28 L478.31152,54 L475.03552,54 L475.03552,44.496 C475.03552,41.724 473.63152,40.032 471.32752,40.032 C468.69952,40.032 466.57552,41.616 466.57552,44.928 Z M500.13904,54 L496.89904,54 L496.89904,51.408 C495.78304,53.28 493.44304,54.36 490.99504,54.36 C488.61904,54.36 486.60304,53.532 484.94704,51.912 C483.29104,50.292 482.46304,48.168 482.46304,45.576 C482.46304,42.948 483.29104,40.86 484.94704,39.24 C486.60304,37.62 488.61904,36.828 490.99504,36.828 C493.44304,36.828 495.85504,37.872 496.89904,39.708 L496.89904,37.188 L500.13904,37.188 L500.13904,54 Z M496.86304,45.54 C496.86304,43.848 496.28704,42.48 495.17104,41.508 C494.05504,40.536 492.75904,40.032 491.28304,40.032 C489.73504,40.032 488.40304,40.536 487.35904,41.58 C486.31504,42.588 485.81104,43.92 485.81104,45.54 C485.81104,47.16 486.35104,48.528 487.39504,49.572 C488.43904,50.616 489.73504,51.156 491.28304,51.156 C492.83104,51.156 494.16304,50.652 495.24304,49.644 C496.32304,48.636 496.86304,47.268 496.86304,45.54 Z M524.95456,40.032 C522.21856,39.996 520.49056,42.048 520.49056,44.928 L520.49056,54 L517.21456,54 L517.21456,44.46 C517.21456,41.724 515.77456,40.032 513.57856,40.032 C510.98656,40.032 508.89856,41.652 508.89856,44.928 L508.89856,54 L505.62256,54 L505.62256,37.188 L508.89856,37.188 L508.89856,39.708 C509.72656,38.016 511.85056,37.044 513.54256,36.9 C514.19056,36.864 514.80256,36.9 515.37856,37.008 C517.50256,37.332 518.97856,38.448 519.77056,40.284 C520.95856,37.98 522.90256,36.828 525.60256,36.828 C529.77856,36.828 532.08256,39.528 532.08256,44.28 L532.08256,54 L528.80656,54 L528.80656,44.496 C528.80656,41.724 527.36656,40.032 524.95456,40.032 Z M540.59008,54 L537.35008,54 L537.35008,37.188 L540.59008,37.188 L540.59008,54 Z M537.35008,32.508 C536.48608,31.68 536.48608,30.312 537.35008,29.484 C538.25008,28.656 539.69008,28.656 540.55408,29.484 C541.45408,30.312 541.45408,31.68 540.55408,32.508 C539.69008,33.336 538.25008,33.336 537.35008,32.508 Z M553.8496,36.828 C556.5136,36.828 558.6736,37.728 560.3296,39.528 L557.8456,41.616 C556.8016,40.572 555.4696,40.032 553.8496,40.032 C552.3016,40.032 550.9696,40.536 549.8536,41.58 C548.7376,42.588 548.1976,43.92 548.1976,45.54 C548.1976,47.196 548.7376,48.564 549.8536,49.608 C550.9696,50.652 552.3016,51.192 553.8496,51.192 C555.4696,51.192 556.8016,50.652 557.8456,49.536 L560.3656,51.624 C558.6736,53.46 556.5136,54.36 553.8496,54.36 C551.3656,54.36 549.2776,53.532 547.5496,51.912 C545.8216,50.256 544.9576,48.132 544.9576,45.54 C544.9576,42.948 545.8216,40.86 547.5496,39.24 C549.2776,37.62 551.3656,36.828 553.8496,36.828 Z M570.45712,47.124 L568.15312,46.584 C564.94912,45.72 563.36512,44.1 563.65312,41.112 C563.76112,39.888 564.40912,38.88 565.52512,38.052 C566.64112,37.224 567.97312,36.828 569.48512,36.828 C572.61712,36.828 575.02912,38.376 575.31712,41.58 L572.18512,41.58 C572.00512,40.392 570.88912,39.672 569.55712,39.672 C568.29712,39.672 567.28912,40.284 567.03712,41.184 C566.89312,41.724 566.89312,42.156 567.07312,42.516 C567.32512,43.056 568.00912,43.488 569.05312,43.812 L571.53712,44.424 C574.45312,45.144 575.89312,46.764 575.89312,49.32 C575.89312,50.832 575.24512,52.056 573.98512,52.992 C572.72512,53.892 571.21312,54.36 569.37712,54.36 C567.75712,54.36 566.31712,53.856 565.05712,52.884 C563.79712,51.912 563.14912,50.58 563.11312,48.96 L566.10112,48.96 C566.24512,49.86 566.71312,50.472 567.46912,50.868 C568.22512,51.336 569.08912,51.516 570.13312,51.444 C571.68112,51.336 572.65312,50.436 572.68912,49.248 C572.72512,48.096 571.86112,47.448 570.45712,47.124 Z M596.94016,28.044 L598.77616,28.044 L598.77616,31.176 L596.94016,31.176 C594.81616,31.176 593.77216,32.616 593.80816,35.496 L593.80816,37.188 L597.69616,37.188 L597.69616,39.96 L593.80816,39.96 L593.80816,54 L590.49616,54 L590.49616,39.96 L587.25616,39.96 L587.25616,37.188 L590.49616,37.188 L590.49616,35.496 C590.49616,30.852 592.58416,28.044 596.94016,28.044 Z M600.01168,45.54 C600.01168,42.948 600.83968,40.86 602.53168,39.24 C604.22368,37.62 606.31168,36.828 608.79568,36.828 C611.27968,36.828 613.36768,37.62 615.05968,39.24 C616.75168,40.86 617.61568,42.948 617.61568,45.54 C617.61568,48.132 616.75168,50.256 615.02368,51.912 C613.33168,53.532 611.24368,54.36 608.79568,54.36 C606.34768,54.36 604.25968,53.532 602.56768,51.912 C600.87568,50.292 600.01168,48.168 600.01168,45.54 Z M614.33968,45.54 C614.33968,43.884 613.79968,42.552 612.71968,41.544 C611.67568,40.536 610.34368,40.032 608.79568,40.032 C607.24768,40.032 605.91568,40.536 604.83568,41.544 C603.79168,42.552 603.25168,43.884 603.25168,45.54 C603.25168,47.232 603.79168,48.6 604.83568,49.644 C605.91568,50.688 607.24768,51.192 608.79568,51.192 C610.34368,51.192 611.67568,50.688 612.71968,49.644 C613.79968,48.6 614.33968,47.232 614.33968,45.54 Z M625.2592,47.88 L625.2592,54 L621.9832,54 L621.9832,37.188 L625.2592,37.188 L625.2592,40.968 C626.0872,38.196 627.6352,36.828 629.9392,36.828 C631.2712,36.828 632.2432,37.044 632.8552,37.476 L632.3512,40.536 C631.5592,40.14 630.7312,39.96 629.8672,39.96 C626.8072,39.96 625.2592,43.128 625.2592,47.88 Z M645.37024,54 L645.37024,29.196 L655.27024,29.196 C657.71824,29.196 659.55424,29.952 660.77824,31.464 C662.03824,32.976 662.65024,34.812 662.65024,36.972 C662.65024,39.132 662.03824,40.968 660.77824,42.48 C659.55424,43.956 657.71824,44.712 655.27024,44.712 L648.75424,44.712 L648.75424,54 L645.37024,54 Z M655.23424,32.328 L648.75424,32.328 L648.75424,41.58 L655.05424,41.58 C657.89824,41.58 659.30224,39.528 659.30224,36.972 C659.30224,34.416 657.93424,32.328 655.23424,32.328 Z M666.54976,54 L666.54976,28.044 L669.82576,28.044 L669.82576,54 L666.54976,54 Z M691.86928,54 L688.62928,54 L688.62928,51.408 C687.51328,53.28 685.17328,54.36 682.72528,54.36 C680.34928,54.36 678.33328,53.532 676.67728,51.912 C675.02128,50.292 674.19328,48.168 674.19328,45.576 C674.19328,42.948 675.02128,40.86 676.67728,39.24 C678.33328,37.62 680.34928,36.828 682.72528,36.828 C685.17328,36.828 687.58528,37.872 688.62928,39.708 L688.62928,37.188 L691.86928,37.188 L691.86928,54 Z M688.59328,45.54 C688.59328,43.848 688.01728,42.48 686.90128,41.508 C685.78528,40.536 684.48928,40.032 683.01328,40.032 C681.46528,40.032 680.13328,40.536 679.08928,41.58 C678.04528,42.588 677.54128,43.92 677.54128,45.54 C677.54128,47.16 678.08128,48.528 679.12528,49.572 C680.16928,50.616 681.46528,51.156 683.01328,51.156 C684.56128,51.156 685.89328,50.652 686.97328,49.644 C688.05328,48.636 688.59328,47.268 688.59328,45.54 Z M700.6288,44.928 L700.6288,54 L697.3528,54 L697.3528,37.188 L700.6288,37.188 L700.6288,39.708 C701.6008,37.836 703.8328,36.828 705.8848,36.828 C710.0608,36.828 712.3648,39.528 712.3648,44.28 L712.3648,54 L709.0888,54 L709.0888,44.496 C709.0888,41.724 707.6848,40.032 705.3808,40.032 C702.7528,40.032 700.6288,41.616 700.6288,44.928 Z M720.90832,44.928 L720.90832,54 L717.63232,54 L717.63232,37.188 L720.90832,37.188 L720.90832,39.708 C721.88032,37.836 724.11232,36.828 726.16432,36.828 C730.34032,36.828 732.64432,39.528 732.64432,44.28 L732.64432,54 L729.36832,54 L729.36832,44.496 C729.36832,41.724 727.96432,40.032 725.66032,40.032 C723.03232,40.032 720.90832,41.616 720.90832,44.928 Z M741.15184,54 L737.91184,54 L737.91184,37.188 L741.15184,37.188 L741.15184,54 Z M737.91184,32.508 C737.04784,31.68 737.04784,30.312 737.91184,29.484 C738.81184,28.656 740.25184,28.656 741.11584,29.484 C742.01584,30.312 742.01584,31.68 741.11584,32.508 C740.25184,33.336 738.81184,33.336 737.91184,32.508 Z M749.91136,44.928 L749.91136,54 L746.63536,54 L746.63536,37.188 L749.91136,37.188 L749.91136,39.708 C750.88336,37.836 753.11536,36.828 755.16736,36.828 C759.34336,36.828 761.64736,39.528 761.64736,44.28 L761.64736,54 L758.37136,54 L758.37136,44.496 C758.37136,41.724 756.96736,40.032 754.66336,40.032 C752.03536,40.032 749.91136,41.616 749.91136,44.928 Z M780.234869,51.2640224 C779.262861,53.1720093 776.77887,54.36 774.33088,54.36 C771.95488,54.36 769.93888,53.568 768.28288,51.948 C766.62688,50.328 765.79888,48.24 765.79888,45.648 C765.79888,43.02 766.62688,40.896 768.28288,39.276 C769.93888,37.656 771.95488,36.828 774.33088,36.828 C776.77888,36.828 779.19088,37.944 780.23488,39.816 L780.23488,37.188 L783.47488,37.188 L783.47488,51.444 C783.47488,58.752 780.41488,62.388 774.29488,62.388 C771.12688,62.388 768.28288,60.732 766.69888,57.852 C766.87888,57.78 767.34688,57.528 768.13888,57.096 L769.43488,56.412 C770.40688,58.248 772.38688,59.292 774.29488,59.292 C778.29088,59.292 780.27088,56.736 780.27088,51.66 C780.27088,51.5533943 780.235804,51.3766357 780.234898,51.2682187 L780.234869,51.2640224 Z M780.19888,45.612 C780.19888,43.884 779.65888,42.516 778.57888,41.544 C777.49888,40.536 776.16688,40.032 774.61888,40.032 C773.07088,40.032 771.77488,40.572 770.73088,41.616 C769.68688,42.66 769.14688,43.992 769.14688,45.612 C769.14688,47.304 769.65088,48.636 770.69488,49.644 C771.73888,50.652 773.07088,51.156 774.61888,51.156 C776.09488,51.156 777.39088,50.652 778.50688,49.644 C779.62288,48.636 780.19888,47.304 780.19888,45.612 Z M805.70992,28.044 L807.54592,28.044 L807.54592,31.176 L805.70992,31.176 C803.58592,31.176 802.54192,32.616 802.57792,35.496 L802.57792,37.188 L806.46592,37.188 L806.46592,39.96 L802.57792,39.96 L802.57792,54 L799.26592,54 L799.26592,39.96 L796.02592,39.96 L796.02592,37.188 L799.26592,37.188 L799.26592,35.496 C799.26592,30.852 801.35392,28.044 805.70992,28.044 Z M813.42544,47.88 L813.42544,54 L810.14944,54 L810.14944,37.188 L813.42544,37.188 L813.42544,40.968 C814.25344,38.196 815.80144,36.828 818.10544,36.828 C819.43744,36.828 820.40944,37.044 821.02144,37.476 L820.51744,40.536 C819.72544,40.14 818.89744,39.96 818.03344,39.96 C814.97344,39.96 813.42544,43.128 813.42544,47.88 Z M822.83296,45.54 C822.83296,42.948 823.66096,40.86 825.35296,39.24 C827.04496,37.62 829.13296,36.828 831.61696,36.828 C834.10096,36.828 836.18896,37.62 837.88096,39.24 C839.57296,40.86 840.43696,42.948 840.43696,45.54 C840.43696,48.132 839.57296,50.256 837.84496,51.912 C836.15296,53.532 834.06496,54.36 831.61696,54.36 C829.16896,54.36 827.08096,53.532 825.38896,51.912 C823.69696,50.292 822.83296,48.168 822.83296,45.54 Z M837.16096,45.54 C837.16096,43.884 836.62096,42.552 835.54096,41.544 C834.49696,40.536 833.16496,40.032 831.61696,40.032 C830.06896,40.032 828.73696,40.536 827.65696,41.544 C826.61296,42.552 826.07296,43.884 826.07296,45.54 C826.07296,47.232 826.61296,48.6 827.65696,49.644 C828.73696,50.688 830.06896,51.192 831.61696,51.192 C833.16496,51.192 834.49696,50.688 835.54096,49.644 C836.62096,48.6 837.16096,47.232 837.16096,45.54 Z M864.13648,40.032 C861.40048,39.996 859.67248,42.048 859.67248,44.928 L859.67248,54 L856.39648,54 L856.39648,44.46 C856.39648,41.724 854.95648,40.032 852.76048,40.032 C850.16848,40.032 848.08048,41.652 848.08048,44.928 L848.08048,54 L844.80448,54 L844.80448,37.188 L848.08048,37.188 L848.08048,39.708 C848.90848,38.016 851.03248,37.044 852.72448,36.9 C853.37248,36.864 853.98448,36.9 854.56048,37.008 C856.68448,37.332 858.16048,38.448 858.95248,40.284 C860.14048,37.98 862.08448,36.828 864.78448,36.828 C868.96048,36.828 871.26448,39.528 871.26448,44.28 L871.26448,54 L867.98848,54 L867.98848,44.496 C867.98848,41.724 866.54848,40.032 864.13648,40.032 Z M886.55152,54 L886.55152,29.196 L896.45152,29.196 C898.89952,29.196 900.73552,29.952 901.95952,31.464 C903.21952,32.976 903.83152,34.812 903.83152,36.972 C903.83152,39.132 903.21952,40.968 901.95952,42.48 C900.73552,43.956 898.89952,44.712 896.45152,44.712 L889.93552,44.712 L889.93552,54 L886.55152,54 Z M896.41552,32.328 L889.93552,32.328 L889.93552,41.58 L896.23552,41.58 C899.07952,41.58 900.48352,39.528 900.48352,36.972 C900.48352,34.416 899.11552,32.328 896.41552,32.328 Z M910.97104,54 L907.73104,54 L907.73104,37.188 L910.97104,37.188 L910.97104,54 Z M907.73104,32.508 C906.86704,31.68 906.86704,30.312 907.73104,29.484 C908.63104,28.656 910.07104,28.656 910.93504,29.484 C911.83504,30.312 911.83504,31.68 910.93504,32.508 C910.07104,33.336 908.63104,33.336 907.73104,32.508 Z M920.81056,44.784 L915.33856,37.188 L919.26256,37.188 L922.71856,42.12 L926.21056,37.188 L930.13456,37.188 L924.62656,44.784 L931.28656,54 L927.39856,54 L922.71856,47.484 L918.00256,54 L914.15056,54 L920.81056,44.784 Z M936.08608,44.28 L946.52608,44.28 C946.13008,41.508 944.15008,39.78 941.41408,39.78 C938.57008,39.78 936.48208,41.508 936.08608,44.28 Z M949.76608,45.54 C949.76608,46.152 949.76608,46.584 949.73008,46.836 L936.08608,46.836 C936.48208,49.608 938.64208,51.408 941.52208,51.408 C943.57408,51.408 945.44608,50.436 946.34608,48.816 C946.67008,48.924 947.13808,49.14 947.78608,49.392 L949.15408,49.896 C947.75008,52.776 944.76208,54.36 941.41408,54.36 C938.96608,54.36 936.91408,53.532 935.25808,51.912 C933.63808,50.292 932.81008,48.168 932.81008,45.54 C932.81008,42.912 933.63808,40.824 935.25808,39.24 C936.91408,37.62 938.96608,36.828 941.41408,36.828 C943.82608,36.828 945.84208,37.62 947.39008,39.24 C948.97408,40.824 949.76608,42.912 949.76608,45.54 Z M953.9536,54 L953.9536,28.044 L957.2296,28.044 L957.2296,54 L953.9536,54 Z M968.83312,47.124 L966.52912,46.584 C963.32512,45.72 961.74112,44.1 962.02912,41.112 C962.13712,39.888 962.78512,38.88 963.90112,38.052 C965.01712,37.224 966.34912,36.828 967.86112,36.828 C970.99312,36.828 973.40512,38.376 973.69312,41.58 L970.56112,41.58 C970.38112,40.392 969.26512,39.672 967.93312,39.672 C966.67312,39.672 965.66512,40.284 965.41312,41.184 C965.26912,41.724 965.26912,42.156 965.44912,42.516 C965.70112,43.056 966.38512,43.488 967.42912,43.812 L969.91312,44.424 C972.82912,45.144 974.26912,46.764 974.26912,49.32 C974.26912,50.832 973.62112,52.056 972.36112,52.992 C971.10112,53.892 969.58912,54.36 967.75312,54.36 C966.13312,54.36 964.69312,53.856 963.43312,52.884 C962.17312,51.912 961.52512,50.58 961.48912,48.96 L964.47712,48.96 C964.62112,49.86 965.08912,50.472 965.84512,50.868 C966.60112,51.336 967.46512,51.516 968.50912,51.444 C970.05712,51.336 971.02912,50.436 971.06512,49.248 C971.10112,48.096 970.23712,47.448 968.83312,47.124 Z" id="PlaNet:-Learning-Lat" fill="#FFFFFF"></path>
            </g>
        </g>
    </g>
</svg>